<?xml version="1.0" standalone="no"?>
<!DOCTYPE svg PUBLIC "-//W3C//DTD SVG 20010904//EN"
 "http://www.w3.org/TR/2001/REC-SVG-20010904/DTD/svg10.dtd">
<svg version="1.0" xmlns="http://www.w3.org/2000/svg"
 width="512.000000pt" height="512.000000pt" viewBox="0 0 512.000000 512.000000"
 preserveAspectRatio="xMidYMid meet">
<metadata>
Created by potrace 1.16, written by Peter Selinger 2001-2019
</metadata>
<g transform="translate(0.000000,512.000000) scale(0.100000,-0.100000)"
fill="#000000" stroke="none">
<path d="M2250 4264 c-314 -37 -551 -95 -725 -179 -376 -181 -595 -471 -621
-823 -6 -89 13 -287 38 -387 l13 -50 50 1 c28 0 69 4 92 8 l42 8 -6 -50 c-6
-50 -5 -51 29 -72 29 -17 36 -28 41 -61 3 -22 13 -49 22 -59 16 -17 13 -20
-57 -56 -126 -66 -218 -180 -218 -271 0 -49 14 -63 61 -63 30 0 52 11 105 50
62 48 67 50 84 35 10 -9 38 -22 61 -29 l43 -13 -57 -26 c-46 -21 -61 -34 -72
-61 -16 -37 -10 -91 13 -131 8 -15 4 -27 -24 -60 -59 -73 -66 -102 -65 -267 0
-96 6 -173 17 -218 19 -84 71 -169 140 -228 126 -108 428 -207 794 -258 146
-21 573 -29 740 -15 522 45 959 169 1117 315 98 91 143 202 143 357 0 101 -20
163 -74 229 -94 115 -94 114 -85 135 13 35 10 109 -7 133 l-15 22 66 0 c57 0
69 3 90 25 17 16 25 35 25 58 0 47 -45 131 -93 172 -38 33 -39 36 -24 53 25
28 22 92 -8 136 l-24 36 38 0 c58 0 91 31 91 84 0 47 -14 64 -88 110 l-43 27
32 37 c73 83 105 221 89 387 -11 116 -25 173 -66 263 -132 291 -431 501 -884
621 -211 56 -334 73 -570 76 -118 2 -231 1 -250 -1z m510 -50 c292 -38 643
-157 828 -282 116 -80 252 -233 313 -354 37 -72 31 -75 -10 -5 -76 132 -216
279 -360 376 -56 38 -101 53 -101 32 0 -5 42 -38 93 -75 281 -199 444 -505
407 -766 -6 -41 -15 -90 -21 -107 l-10 -33 -57 29 c-94 47 -227 90 -349 112
-63 11 -117 19 -119 16 -2 -2 44 -19 103 -37 139 -42 407 -131 413 -137 11
-11 -54 -55 -74 -50 -22 5 -341 88 -503 131 -352 93 -822 110 -1323 50 -256
-30 -568 -106 -741 -179 -96 -40 -99 -41 -142 -19 -112 57 -160 182 -137 365
44 368 309 661 743 823 327 122 669 158 1047 110z m-230 -1144 c0 -26 -4 -30
-26 -30 -14 0 -44 -11 -67 -24 -66 -39 -100 -40 -237 -12 -131 27 -186 32
-209 17 -33 -21 0 -37 132 -64 157 -32 239 -34 321 -8 51 16 65 16 114 5 107
-25 318 -37 422 -24 192 24 201 24 237 5 18 -10 33 -22 33 -26 0 -5 19 -21 42
-36 41 -27 45 -28 192 -28 156 -1 205 -9 258 -47 25 -17 45 -54 35 -64 -2 -3
-21 5 -42 17 -48 28 -104 28 -205 0 -51 -14 -104 -21 -167 -21 -102 0 -150 14
-298 88 -44 22 -118 52 -165 68 -84 28 -87 28 -300 26 -379 -5 -692 31 -786
89 -25 15 -42 19 -66 14 -26 -6 -30 -4 -22 5 23 23 496 76 717 79 l87 1 0 -30z
m358 20 c132 -14 251 -40 452 -100 129 -38 195 -53 250 -55 87 -3 165 -30 243
-82 28 -19 69 -44 89 -54 43 -22 54 -37 40 -51 -19 -19 -68 3 -125 57 -47 45
-70 58 -129 76 -65 20 -85 21 -221 16 -166 -7 -145 -14 -218 71 -40 48 -90 56
-217 36 -214 -35 -470 -14 -480 40 -2 10 1 23 6 28 27 27 155 34 310 18z
m-1183 -104 l50 -25 -67 -31 c-53 -25 -84 -32 -157 -37 -80 -5 -91 -4 -91 11
0 9 -6 16 -14 16 -21 0 -167 -79 -197 -106 -14 -13 -28 -24 -32 -24 -14 0 22
58 49 79 36 29 170 78 299 112 61 15 110 28 110 28 0 1 23 -10 50 -23z m-696
-68 c12 -15 11 -18 -3 -18 -10 0 -16 8 -16 22 0 12 1 19 3 17 1 -2 9 -12 16
-21z m844 -15 c31 -6 34 -15 12 -33 -11 -9 -12 -15 -5 -20 13 -8 -48 -52 -105
-76 -33 -14 -59 -15 -147 -10 -60 4 -108 5 -108 3 0 -3 51 -18 113 -33 l112
-29 -130 -6 c-114 -6 -265 -26 -332 -45 -19 -5 -23 -2 -23 15 0 27 15 58 44
89 42 47 73 55 226 62 157 7 199 20 250 75 17 18 30 24 45 20 11 -4 32 -9 48
-12z m107 -33 c-20 -13 -33 -13 -25 0 3 6 14 10 23 10 15 0 15 -2 2 -10z m188
-45 c39 -12 118 -16 344 -19 418 -4 552 -30 696 -136 23 -18 42 -35 42 -40 0
-4 -40 10 -89 31 -160 69 -386 111 -596 111 -92 0 -130 -6 -230 -32 -187 -50
-197 -52 -247 -45 -58 8 -195 72 -182 85 17 17 139 59 175 60 19 0 58 -7 87
-15z m660 -126 c110 -12 238 -37 360 -71 l84 -24 -74 -23 c-190 -61 -334 -134
-516 -266 l-93 -66 -74 69 c-82 77 -180 132 -317 181 -198 69 -339 76 -580 27
-222 -45 -408 -121 -518 -211 -61 -50 -79 -47 -60 11 25 74 144 172 290 237
87 39 111 42 58 8 -27 -17 -48 -33 -48 -35 0 -2 37 12 83 30 150 60 236 69
592 57 354 -12 375 -16 591 -107 71 -29 140 -57 153 -61 l25 -7 -21 33 c-42
66 -176 140 -338 185 -33 10 -55 19 -50 21 64 22 307 28 453 12z m1050 -22 c3
-15 0 -16 -22 -6 -14 7 -23 16 -20 21 9 15 38 4 42 -15z m-114 -21 c125 -38
130 -42 55 -50 -90 -10 -274 9 -340 33 -109 41 -103 46 53 45 125 -1 154 -4
232 -28z m-429 -26 c3 -5 -1 -10 -9 -10 -9 0 -16 5 -16 10 0 6 4 10 9 10 6 0
13 -4 16 -10z m230 -70 c77 -11 170 -20 208 -20 43 0 66 -4 62 -10 -11 -17
-174 -11 -327 12 -82 12 -148 26 -148 30 0 12 54 9 205 -12z m10 -69 c72 -11
164 -23 205 -26 41 -4 91 -16 111 -26 46 -23 106 -92 114 -131 10 -43 -8 -58
-71 -58 -55 0 -140 26 -356 109 -130 50 -254 84 -370 101 -48 7 -85 16 -83 20
2 4 30 12 62 18 32 7 67 14 78 16 33 8 172 -3 310 -23z m-1555 -35 c0 -2 -58
-16 -128 -31 l-128 -28 -59 19 c-65 19 -64 20 60 33 83 9 255 14 255 7z m-349
-67 c74 -20 92 -21 152 -10 130 22 188 15 347 -38 175 -59 148 -67 -53 -16
-146 37 -209 42 -300 24 -47 -10 -72 -9 -147 6 -78 15 -102 16 -185 6 -125
-16 -143 -3 -35 25 109 28 119 28 221 3z m1581 -98 c144 -46 202 -60 273 -65
50 -4 110 -10 134 -13 l44 -6 -84 -24 c-106 -31 -167 -64 -229 -126 l-49 -49
-72 57 c-97 76 -215 131 -346 162 -149 35 -138 30 -122 49 8 9 36 32 64 51 49
34 52 34 127 29 55 -4 127 -22 260 -65z m128 40 c47 -11 108 -28 135 -39 l50
-21 -70 6 c-84 6 -164 24 -225 52 l-45 20 35 0 c19 0 73 -8 120 -18z m-1740
-49 c30 -6 24 -7 -40 -13 -87 -8 -120 -3 -120 18 0 13 10 14 63 9 34 -4 78
-10 97 -14z m198 -47 c-54 -14 -119 -36 -145 -50 -27 -14 -37 -23 -23 -20 14
3 84 21 155 40 72 18 179 38 239 44 129 13 396 15 396 3 0 -13 -82 -37 -263
-77 -460 -102 -562 -144 -714 -288 -82 -78 -91 -78 -112 -5 -7 24 -39 94 -72
156 -32 63 -59 116 -59 118 0 8 43 21 91 28 l47 7 7 -58 c6 -50 9 -55 19 -38
55 96 239 162 456 163 l75 1 -97 -24z m917 -110 c89 -26 213 -80 250 -108 11
-9 -42 4 -123 29 -176 54 -243 64 -352 53 -87 -8 -444 -71 -514 -90 -66 -18
-49 -3 23 20 175 55 476 119 567 120 39 1 95 -9 149 -24z m278 -18 c26 -11 46
-22 44 -24 -5 -4 -137 44 -146 53 -10 10 52 -8 102 -29z m713 -28 c-43 -22
-76 -43 -73 -45 6 -6 137 44 152 57 27 26 34 -19 11 -74 -16 -40 -100 -88
-197 -112 l-65 -17 -70 43 c-38 24 -71 44 -73 46 -9 6 45 56 73 68 20 9 38 9
61 2 28 -8 39 -6 79 18 53 31 119 54 156 54 18 0 2 -12 -54 -40z m-966 -72
c43 -13 36 -14 -139 -20 -226 -9 -426 -7 -466 3 -36 9 -58 6 215 25 214 15
322 13 390 -8z m-887 -62 c274 -38 609 -42 1148 -14 l226 12 83 -39 84 -39
-85 -12 c-277 -40 -413 -48 -829 -48 -335 0 -443 4 -560 18 -126 15 -359 55
-368 62 -5 4 70 49 113 67 22 10 50 15 63 12 13 -2 69 -11 125 -19z m-659 -94
c30 -56 130 -85 406 -115 244 -27 508 -39 753 -33 259 6 270 3 164 -44 -42
-18 -70 -22 -152 -23 -96 0 -98 0 -65 -14 19 -8 71 -17 115 -20 77 -4 83 -3
155 34 l75 39 70 -24 c60 -22 88 -25 205 -25 120 -1 140 1 180 21 41 21 42 22
13 17 -73 -12 -250 -6 -308 11 -119 34 -110 41 62 48 155 6 425 32 653 62 132
18 243 46 303 76 l41 22 28 -34 c44 -52 63 -121 62 -224 -2 -236 -129 -345
-537 -460 -419 -118 -1067 -154 -1467 -82 -54 10 -16 11 235 8 415 -4 780 21
1070 74 307 57 445 132 511 279 23 50 28 78 31 156 l3 95 -25 -94 c-55 -210
-170 -315 -396 -361 -298 -61 -959 -103 -1295 -81 -203 13 -304 31 -430 76
-209 74 -364 193 -431 330 l-25 50 6 -52 c3 -28 15 -71 27 -95 30 -60 124
-173 177 -214 55 -42 50 -42 -33 -5 -78 36 -158 109 -193 176 -23 46 -26 65
-33 224 -7 145 -6 178 7 202 8 16 17 29 19 29 2 0 11 -13 19 -29z"/>
<path d="M2485 4200 c-3 -5 3 -10 14 -10 12 0 21 5 21 10 0 6 -6 10 -14 10 -8
0 -18 -4 -21 -10z"/>
<path d="M2660 4180 c0 -5 12 -10 26 -10 14 0 23 4 19 10 -3 6 -15 10 -26 10
-10 0 -19 -4 -19 -10z"/>
<path d="M2113 4160 c-42 -17 -26 -32 25 -25 63 9 74 13 67 25 -8 12 -62 12
-92 0z"/>
<path d="M2387 4164 c-11 -11 5 -34 23 -34 27 0 34 17 11 29 -23 13 -26 13
-34 5z"/>
<path d="M2764 4146 c-10 -8 -16 -17 -12 -21 11 -12 68 6 68 21 0 18 -31 18
-56 0z"/>
<path d="M1885 4135 c-5 -2 -23 -6 -38 -9 -15 -4 -25 -10 -22 -15 6 -11 85 8
85 20 0 9 -7 10 -25 4z"/>
<path d="M2547 4134 c-17 -17 -3 -24 49 -24 40 0 55 4 52 13 -5 13 -89 22
-101 11z"/>
<path d="M2940 4110 c0 -5 16 -10 36 -10 21 0 33 4 29 10 -3 6 -19 10 -36 10
-16 0 -29 -4 -29 -10z"/>
<path d="M1975 4100 c-8 -12 20 -24 35 -15 6 3 8 11 5 16 -8 12 -32 12 -40 -1z"/>
<path d="M2475 4060 c14 -67 24 -84 40 -70 23 19 18 44 -16 76 l-31 29 7 -35z"/>
<path d="M3050 4074 c0 -11 8 -14 27 -12 39 4 42 28 4 28 -21 0 -31 -5 -31
-16z"/>
<path d="M1827 4074 c-14 -15 7 -24 51 -24 44 1 46 2 28 15 -20 15 -67 20 -79
9z"/>
<path d="M1996 4061 c-11 -12 -14 -21 -7 -25 14 -9 53 13 48 27 -6 19 -23 18
-41 -2z"/>
<path d="M2315 4053 c-20 -31 -11 -56 23 -61 57 -9 88 59 36 78 -36 14 -40 13
-59 -17z m55 -12 c0 -9 -24 -21 -41 -21 -16 0 -10 18 9 23 28 8 32 7 32 -2z"/>
<path d="M2163 4063 c-7 -2 -13 -11 -13 -19 0 -17 65 -20 76 -3 12 20 -31 36
-63 22z"/>
<path d="M2830 4046 c0 -20 16 -29 40 -21 32 10 25 35 -10 35 -19 0 -30 -5
-30 -14z"/>
<path d="M3140 4020 c0 -14 35 -30 64 -30 33 0 33 18 0 30 -32 13 -64 13 -64
0z"/>
<path d="M1773 4004 c-3 -8 -1 -20 5 -26 16 -16 42 -2 42 22 0 24 -38 28 -47
4z"/>
<path d="M1653 3979 c-32 -29 -45 -57 -20 -43 31 19 77 57 77 65 0 18 -26 8
-57 -22z"/>
<path d="M1895 3971 c-7 -13 27 -31 59 -31 32 0 42 16 17 29 -25 14 -68 14
-76 2z"/>
<path d="M2941 3962 c-12 -22 -3 -38 29 -50 47 -18 97 20 70 53 -18 22 -87 20
-99 -3z m79 -12 c0 -5 -13 -10 -30 -10 -16 0 -30 5 -30 10 0 6 14 10 30 10 17
0 30 -4 30 -10z"/>
<path d="M1518 3946 c-110 -39 -206 -105 -309 -212 -148 -154 -209 -304 -200
-489 2 -35 5 -29 26 50 30 118 57 188 100 259 88 146 203 256 361 347 132 76
137 86 22 45z"/>
<path d="M3317 3940 c-44 -35 -35 -69 25 -95 50 -20 59 -1 12 27 -34 20 -35
22 -18 35 10 7 36 13 58 13 36 0 39 2 26 15 -27 26 -72 29 -103 5z"/>
<path d="M2592 3905 c-45 -39 -106 -151 -100 -182 3 -14 11 -6 34 31 16 27 50
76 76 110 26 33 48 64 48 69 0 15 -17 6 -58 -28z"/>
<path d="M2089 3900 c-24 -20 -24 -20 -5 -35 11 -8 27 -15 36 -15 9 0 25 7 36
15 19 15 19 15 -5 35 -13 11 -27 20 -31 20 -4 0 -18 -9 -31 -20z m51 -10 c11
-7 6 -10 -20 -10 -26 0 -31 3 -20 10 8 5 17 10 20 10 3 0 12 -5 20 -10z"/>
<path d="M1827 3864 c-16 -17 -4 -24 39 -24 32 0 44 4 42 13 -5 13 -69 22 -81
11z"/>
<path d="M2660 3846 c0 -8 5 -18 10 -21 6 -3 10 -17 10 -30 0 -35 18 -40 31
-8 7 19 7 34 0 50 -12 25 -51 32 -51 9z"/>
<path d="M2833 3835 c-33 -14 -41 -29 -23 -40 12 -7 90 32 90 45 0 14 -29 12
-67 -5z"/>
<path d="M3082 3818 c-26 -26 -7 -48 43 -48 27 0 49 24 41 45 -7 18 -67 20
-84 3z m58 -12 c0 -11 -19 -15 -25 -6 -3 5 1 10 9 10 9 0 16 -2 16 -4z"/>
<path d="M1637 3772 c-28 -29 -33 -42 -18 -42 13 0 71 50 71 61 0 18 -27 8
-53 -19z"/>
<path d="M3472 3784 c2 -9 13 -23 25 -31 21 -14 23 -14 30 2 4 12 0 23 -12 31
-26 19 -47 18 -43 -2z"/>
<path d="M2915 3750 c-14 -15 -16 -23 -7 -32 17 -17 62 6 62 32 0 26 -31 26
-55 0z"/>
<path d="M3082 3748 c-7 -7 -12 -20 -12 -29 0 -19 36 -49 57 -49 15 0 53 36
53 49 0 33 -72 55 -98 29z m42 -14 c20 -8 11 -24 -15 -24 -10 0 -19 7 -19 15
0 16 9 19 34 9z"/>
<path d="M2039 3732 c-33 -17 -53 -52 -28 -52 16 0 79 40 79 50 0 18 -18 19
-51 2z"/>
<path d="M1708 3719 c-19 -68 -27 -167 -18 -232 18 -126 69 -205 165 -256 l40
-22 -52 4 c-58 4 -73 -9 -20 -17 82 -13 115 -14 152 -7 l40 8 -40 17 c-207 89
-244 145 -254 391 -4 86 -9 130 -13 114z"/>
<path d="M1391 3711 c-24 -24 -26 -42 -9 -59 31 -31 93 4 86 50 -4 32 -49 37
-77 9z m47 -13 c-3 -7 -14 -14 -26 -16 -16 -3 -20 1 -16 12 7 19 48 22 42 4z"/>
<path d="M1842 3714 c-27 -19 -45 -51 -33 -58 12 -8 71 42 71 60 0 18 -10 18
-38 -2z"/>
<path d="M3657 3693 c-16 -15 -4 -60 23 -92 38 -44 52 -32 22 20 -16 28 -19
39 -9 39 7 0 18 -5 25 -12 9 -9 12 -8 12 4 0 28 -56 59 -73 41z"/>
<path d="M1248 3609 c-10 -5 -18 -16 -18 -24 0 -17 56 -3 79 20 14 13 12 15
-14 15 -17 0 -38 -5 -47 -11z"/>
<path d="M1485 3590 c-19 -20 -26 -33 -19 -40 12 -12 77 47 68 61 -9 15 -19
10 -49 -21z"/>
<path d="M1560 3551 c-14 -27 -13 -47 6 -65 23 -23 51 -20 70 9 15 23 15 27 0
50 -20 30 -61 33 -76 6z m40 -35 c-13 -13 -35 7 -25 24 5 8 11 8 21 -1 10 -8
12 -15 4 -23z"/>
<path d="M3460 3556 c0 -20 39 -66 56 -66 22 0 17 34 -9 58 -26 25 -47 29 -47
8z"/>
<path d="M1202 3538 c-5 -7 -12 -22 -14 -33 -5 -29 37 -33 52 -5 20 38 -11 70
-38 38z"/>
<path d="M2106 3491 c-22 -25 -13 -58 20 -73 19 -9 28 -8 44 7 25 23 26 61 1
75 -29 15 -46 12 -65 -9z m42 -18 c-4 -22 -38 -30 -38 -10 0 14 13 24 33 26 5
1 7 -7 5 -16z"/>
<path d="M2400 3304 c-83 -11 -259 -45 -281 -54 -19 -8 -15 -9 21 -4 25 4 284
8 575 10 292 1 535 3 540 4 6 1 -60 11 -145 21 -149 19 -624 34 -710 23z"/>
<path d="M1505 3220 c-38 -3 -81 -10 -95 -15 l-25 -9 25 -7 c42 -12 91 -10
183 8 54 10 83 20 75 25 -15 9 -60 8 -163 -2z"/>
<path d="M1061 3135 c-1 -35 36 -101 68 -124 37 -27 92 -37 117 -22 17 9 16
10 -9 11 -53 0 -124 56 -160 125 -13 24 -16 26 -16 10z"/>
<path d="M1239 1727 c21 -26 110 -68 185 -87 185 -47 488 -66 561 -36 19 8 35
16 35 18 0 2 -55 4 -123 5 -232 5 -522 48 -623 93 -28 12 -42 15 -35 7z"/>
<path d="M3726 1714 c-36 -20 -237 -63 -335 -71 -55 -5 -69 -9 -51 -14 101
-29 324 15 407 81 30 24 20 26 -21 4z"/>
</g>
</svg>